<svg xmlns="http://www.w3.org/2000/svg" viewBox="0 0 696 696" width = "60" ><path fill="#48d78c" fill-rule="evenodd" clip-rule="evenodd" d="M229.7 516.99l174.67-100.85 61.92-35.75v-94.01l-236.6 136.6v94.01h.01zm0-273.57c78.87-45.53 157.73-91.07 236.6-136.6v94.01l-59.15 34.15L229.7 337.43v-94.01zm192.24 247.97l44.35-25.61V517l-44.35-25.61zM192.57 623.81l-37.13-21.44-136.73-78.93L0 512.64V111.18L192.57 0 348 89.74 503.43 0 696 111.17v401.46l-18.71 10.8-173.86 100.38L348 534.08l-155.43 89.73zm348-106.82l81.17-46.86V153.68l-81.17-46.86v410.17zM155.43 106.82l-81.17 46.86v316.45l81.17 46.86V106.82zm118.63 25.61l-44.36-25.61v51.22l44.36-25.61z"></path></svg>